<svg width="1863" height="600" viewBox="0 0 1863 600" fill="none" xmlns="http://www.w3.org/2000/svg">
<path d="M233.59 211.18C266.03 243.62 316.16 247.55 352.91 223.01L313.42 183.52C298.94 188.52 282.28 185.39 270.72 173.83C254.59 157.69 254.59 131.53 270.72 115.4C286.86 99.2701 313.02 99.2701 329.15 115.4C340.71 126.96 343.84 143.62 338.84 158.1L378.46 197.72C403.76 160.88 400.1 110.15 367.36 77.4101C330.43 40.4701 270.54 40.4701 233.6 77.4101C196.66 114.35 196.66 174.24 233.59 211.18V211.18ZM216.37 359.12C253.65 321.84 253.65 261.39 216.37 224.11C179.09 186.83 118.64 186.83 81.3599 224.11C44.0799 261.39 44.0799 321.84 81.3599 359.12C118.64 396.4 179.09 396.4 216.37 359.12ZM309.25 482.51L385.99 405.77L352.85 372.63L276.11 449.37L251.95 425.21L338.23 338.79L306.04 306.6L184.69 429.64L305.34 550.29L340.41 513.67L309.25 482.51ZM518.64 224.11C481.36 186.83 420.91 186.83 383.63 224.11C346.35 261.39 346.35 321.84 383.63 359.12C420.91 396.4 481.36 396.4 518.64 359.12C555.92 321.84 555.92 261.39 518.64 224.11Z" fill="black"/>
<path d="M691.57 195.88C691.57 158.05 716.85 132.27 757.73 132.27C791.32 132.27 812.35 149.23 817.61 176.04L793.35 179.6C789.96 161.79 777.23 151.1 757.05 151.1C731.44 151.1 716 168.57 716 195.71C716 222 731.44 240.49 757.56 240.49C776.73 240.49 789.62 230.48 794.03 213.18L817.61 217.76C810.49 243.2 790.13 259.49 756.88 259.49C714.98 259.5 691.57 233.2 691.57 195.88Z" fill="black"/>
<path d="M829.81 213.7C829.81 185.71 850.34 168.75 880.53 168.75C910.56 168.75 931.08 185.71 931.08 213.7C931.08 241.52 910.55 258.65 880.53 258.65C850.34 258.65 829.81 241.52 829.81 213.7ZM908.35 213.7C908.35 195.04 897.66 184.86 880.53 184.86C863.23 184.86 852.54 195.04 852.54 213.7C852.54 232.19 863.23 242.54 880.53 242.54C897.67 242.53 908.35 232.19 908.35 213.7Z" fill="black"/>
<path d="M948.04 213.53C948.04 185.88 967.55 168.75 998.59 168.75C1024.54 168.75 1041.34 179.95 1045.41 200.13L1023.02 203.35C1020.48 191.65 1011.65 185.2 997.91 185.2C980.95 185.2 970.77 195.72 970.77 213.36C970.77 231.34 981.29 242.03 998.25 242.03C1011.82 242.03 1020.47 235.75 1023.53 223.88L1045.24 227.61C1041 246.95 1023.36 258.65 998.25 258.65C967.72 258.65 948.04 241.01 948.04 213.53Z" fill="black"/>
<path d="M1117.33 169.08C1119.71 169.08 1121.4 169.25 1123.44 169.59V189.78C1121.23 189.44 1119.2 189.27 1116.82 189.27C1106.98 189.27 1100.54 191.81 1095.96 196.39C1089.17 203.18 1087.65 212.84 1087.65 223.02V256.1H1065.77V171.28H1085.79V193.5C1090.19 178.92 1101.38 169.08 1117.33 169.08Z" fill="black"/>
<path d="M1227.25 219.12H1151.42C1152.27 233.37 1163.3 242.53 1180.94 242.53C1193.83 242.53 1203.5 237.27 1208.76 227.77L1225.89 235.57C1217.41 250.5 1201.63 258.64 1180.09 258.64C1149.05 258.64 1130.05 242.52 1130.05 214.54C1130.05 185.7 1149.22 168.74 1179.24 168.74C1209.6 168.74 1227.25 184.18 1227.25 211.32V219.12V219.12ZM1205.54 204.54C1205.37 190.63 1194.68 182.66 1178.91 182.66C1162.45 182.66 1152.28 191.31 1151.43 205.39H1205.54V204.54V204.54Z" fill="black"/>
<path d="M1241.83 233.2C1241.83 225.06 1245.39 218.27 1252.18 214.03C1258.29 210.13 1266.77 207.75 1282.71 206.23L1313.07 203.69V201.82C1313.07 189.44 1305.44 183.67 1291.19 183.67C1277.28 183.67 1268.8 189.1 1267.44 199.11H1244.54C1246.58 180.62 1264.39 168.75 1291.19 168.75C1321.21 168.75 1335.12 180.28 1335.12 204.88V228.8C1335.12 241.35 1335.8 249.33 1337.33 256.11H1315.28C1314.43 251.7 1314.09 246.1 1313.92 240.67C1308.15 252.04 1294.92 258.65 1276.26 258.65C1255.23 258.65 1241.83 248.98 1241.83 233.2ZM1313.42 220.31V215.9L1284.75 218.78C1269.99 220.31 1264.56 224.21 1264.56 232.01C1264.56 239.64 1271.52 244.05 1283.56 244.05C1301.2 244.06 1313.42 234.73 1313.42 220.31Z" fill="black"/>
<path d="M1345.81 171.29H1365.49V150.09L1387.37 141.61V171.3H1416.21V186.74H1387.37V223.89C1387.37 234.75 1392.63 239.67 1403.65 239.67C1408.57 239.67 1412.64 238.99 1416.2 238.14V255.61C1411.45 256.97 1405.51 257.98 1398.22 257.98C1373.96 257.98 1365.48 245.94 1365.48 227.28V186.74H1345.8V171.29H1345.81Z" fill="black"/>
<path d="M1435.72 135.33H1459.64V157.21H1435.72V135.33ZM1436.74 171.29H1458.62V256.11H1436.74V171.29Z" fill="black"/>
<path d="M1479.14 213.7C1479.14 185.71 1499.67 168.75 1529.86 168.75C1559.88 168.75 1580.41 185.71 1580.41 213.7C1580.41 241.52 1559.88 258.65 1529.86 258.65C1499.67 258.65 1479.14 241.52 1479.14 213.7ZM1557.68 213.7C1557.68 195.04 1546.99 184.86 1529.86 184.86C1512.56 184.86 1501.87 195.04 1501.87 213.7C1501.87 232.19 1512.56 242.54 1529.86 242.54C1546.99 242.53 1557.68 232.19 1557.68 213.7Z" fill="black"/>
<path d="M1600.93 171.29H1622.13V189.44C1628.92 175.7 1641.13 168.58 1658.09 168.58C1682.01 168.58 1694.56 182.32 1694.56 208.44V256.11H1672.68V211.33C1672.68 194.37 1665.22 185.89 1649.61 185.89C1632.99 185.89 1622.81 196.58 1622.81 214.9V256.12H1600.93V171.29Z" fill="black"/>
<path d="M725.67 323.44V356.01H793.86V373.99H725.67V425.73H702.09V305.29H796.74V323.44H725.67Z" fill="black"/>
<path d="M807.09 383.32C807.09 355.33 827.62 338.37 857.81 338.37C887.84 338.37 908.36 355.33 908.36 383.32C908.36 411.14 887.83 428.27 857.81 428.27C827.61 428.28 807.09 411.14 807.09 383.32ZM885.63 383.32C885.63 364.66 874.94 354.48 857.81 354.48C840.51 354.48 829.82 364.66 829.82 383.32C829.82 401.81 840.51 412.16 857.81 412.16C874.94 412.16 885.63 401.81 885.63 383.32Z" fill="black"/>
<path d="M926.5 391.3V340.92H948.38V387.57C948.38 404.87 957.71 411.49 969.92 411.49C987.9 411.49 996.89 398.6 996.89 383.5V340.92H1018.77V425.74H997.57V407.76C992.14 420.65 978.74 428.29 962.96 428.29C938.21 428.28 926.5 414.87 926.5 391.3Z" fill="black"/>
<path d="M1047.96 340.91H1069.16V359.06C1075.95 345.32 1088.16 338.19 1105.12 338.19C1129.04 338.19 1141.59 351.93 1141.59 378.05V425.72H1119.71V380.94C1119.71 363.98 1112.25 355.5 1096.64 355.5C1080.02 355.5 1069.84 366.19 1069.84 384.51V425.73H1047.96V340.91Z" fill="black"/>
<path d="M1160.42 383.32C1160.42 356.69 1178.4 338.37 1204.52 338.37C1219.62 338.37 1230.64 343.46 1237.94 353.98V302.75H1259.82V425.73H1238.79V409.78C1232 421.48 1219.79 428.27 1203.17 428.27C1178.06 428.28 1160.42 410.12 1160.42 383.32ZM1238.45 385.53V381.46C1238.45 365.01 1227.08 354.49 1210.29 354.49C1193.33 354.49 1183.32 365.18 1183.32 383.16C1183.32 401.14 1193.84 412.17 1210.63 412.17C1227.25 412.16 1238.45 401.64 1238.45 385.53Z" fill="black"/>
<path d="M1282.55 402.83C1282.55 394.69 1286.11 387.9 1292.9 383.66C1299.01 379.76 1307.49 377.38 1323.43 375.86L1353.79 373.32V371.45C1353.79 359.07 1346.16 353.3 1331.91 353.3C1318 353.3 1309.52 358.73 1308.16 368.74H1285.26C1287.3 350.25 1305.11 338.38 1331.91 338.38C1361.93 338.38 1375.84 349.92 1375.84 374.51V398.43C1375.84 410.98 1376.52 418.96 1378.05 425.74H1356C1355.15 421.33 1354.81 415.73 1354.64 410.3C1348.87 421.67 1335.64 428.28 1316.98 428.28C1295.95 428.28 1282.55 418.61 1282.55 402.83ZM1354.13 389.94V385.53L1325.46 388.41C1310.7 389.94 1305.27 393.84 1305.27 401.64C1305.27 409.27 1312.23 413.68 1324.27 413.68C1341.92 413.69 1354.13 404.36 1354.13 389.94Z" fill="black"/>
<path d="M1386.53 340.91H1406.21V319.71L1428.09 311.23V340.92H1456.93V356.36H1428.09V393.51C1428.09 404.37 1433.35 409.29 1444.38 409.29C1449.3 409.29 1453.37 408.61 1456.93 407.76V425.23C1452.18 426.59 1446.24 427.61 1438.95 427.61C1414.69 427.61 1406.21 415.57 1406.21 396.91V356.37H1386.53V340.91Z" fill="black"/>
<path d="M1476.43 304.95H1500.35V326.83H1476.43V304.95ZM1477.45 340.91H1499.33V425.73H1477.45V340.91Z" fill="black"/>
<path d="M1519.86 383.32C1519.86 355.33 1540.39 338.37 1570.58 338.37C1600.6 338.37 1621.13 355.33 1621.13 383.32C1621.13 411.14 1600.6 428.27 1570.58 428.27C1540.38 428.28 1519.86 411.14 1519.86 383.32ZM1598.4 383.32C1598.4 364.66 1587.71 354.48 1570.58 354.48C1553.28 354.48 1542.59 364.66 1542.59 383.32C1542.59 401.81 1553.28 412.16 1570.58 412.16C1587.71 412.16 1598.4 401.81 1598.4 383.32Z" fill="black"/>
<path d="M1641.65 340.91H1662.85V359.06C1669.64 345.32 1681.85 338.19 1698.81 338.19C1722.73 338.19 1735.28 351.93 1735.28 378.05V425.72H1713.4V380.94C1713.4 363.98 1705.94 355.5 1690.33 355.5C1673.71 355.5 1663.53 366.19 1663.53 384.51V425.73H1641.65V340.91Z" fill="black"/>
</svg>
