<svg width="154" height="50" viewBox="0 0 154 50" fill="none" xmlns="http://www.w3.org/2000/svg">
<path d="M19.0261 0H20.3883C25.1172 0.102804 29.7691 2.00467 33.1102 5.37149C31.8766 6.63084 30.6172 7.83878 29.4093 9.09813C27.5331 7.40187 25.2714 6.09112 22.8041 5.6285C19.1546 4.85747 15.2224 5.5514 12.164 7.63317C8.82285 9.81775 6.56117 13.5187 6.07285 17.4766C5.53313 21.3832 6.63827 25.4953 9.18266 28.528C11.6242 31.4836 15.3509 33.3341 19.206 33.4626C22.8041 33.6682 26.5565 32.5631 29.178 30.0444C31.2341 28.271 32.185 25.5724 32.4934 22.9509C28.227 22.9509 23.9607 22.9766 19.6943 22.9509V17.6565H37.6593C38.5845 23.3364 37.2481 29.736 32.9303 33.7967C30.0518 36.6752 26.0682 38.3715 22.0074 38.7056C18.0752 39.0911 14.0144 38.3458 10.5191 36.4439C6.32986 34.2079 2.98874 30.4299 1.34388 25.9836C-0.198177 21.8972 -0.223877 17.271 1.21537 13.1589C2.52612 9.40654 5.04481 6.09112 8.28313 3.77804C11.3929 1.49065 15.171 0.231308 19.0261 0Z" fill="#465CA9"/>
<path d="M122.087 1.33643H127.587V38.0373C125.762 38.0373 123.912 38.063 122.087 38.0116C122.113 25.8037 122.087 13.5701 122.087 1.33643Z" fill="#465CA9"/>
<path d="M49.893 14.0586C53.2855 13.416 56.9608 14.1357 59.7622 16.166C62.3065 17.9651 64.0799 20.7922 64.6196 23.8763C65.3136 27.4487 64.4397 31.3553 62.1266 34.1824C59.6337 37.3436 55.5472 39.0398 51.5636 38.7828C47.914 38.5772 44.3673 36.7525 42.2084 33.7712C39.7668 30.4814 39.1757 25.9581 40.5122 22.1029C41.8486 17.9651 45.6266 14.8039 49.893 14.0586ZM50.664 18.9417C49.2762 19.3015 47.9911 20.0983 47.0659 21.2291C44.5729 24.2104 44.7271 29.0679 47.4771 31.8436C49.0449 33.437 51.4094 34.1824 53.5939 33.7455C55.6243 33.3856 57.3977 32.0235 58.3743 30.2244C60.0706 27.166 59.5823 22.9511 56.9865 20.5609C55.3159 19.0188 52.8743 18.3763 50.664 18.9417Z" fill="#465CA9"/>
<path d="M77.1359 14.0585C81.0167 13.3132 85.2574 14.3926 88.1616 17.1169C92.8906 21.3576 93.4046 29.2991 89.3695 34.1823C86.928 37.2664 82.97 38.9627 79.0635 38.7828C75.3368 38.68 71.6616 36.8295 69.4513 33.7711C66.9583 30.4043 66.4186 25.7781 67.8322 21.8459C69.2457 17.8365 72.9467 14.7781 77.1359 14.0585ZM77.9069 18.9417C76.5191 19.3015 75.234 20.0982 74.3088 21.2033C71.8415 24.1333 71.9443 28.9136 74.5915 31.715C76.1593 33.3856 78.6009 34.208 80.8625 33.7454C82.8672 33.3599 84.6663 32.0234 85.6429 30.2244C87.3135 27.1403 86.8251 22.9253 84.2037 20.5351C82.5331 18.9931 80.0915 18.3762 77.9069 18.9417Z" fill="#465CA9"/>
<path d="M100.241 15.549C103.197 13.6985 107.129 13.1845 110.316 14.7779C111.318 15.2149 112.141 15.9602 112.937 16.7055C112.963 16.0116 112.937 15.292 112.963 14.5723C114.685 14.598 116.407 14.5723 118.155 14.598V37.2662C118.129 40.6845 117.255 44.3083 114.788 46.8013C112.089 49.5513 107.951 50.3994 104.225 49.834C100.241 49.2429 96.7714 46.3387 95.2293 42.6634C96.7714 41.9181 98.3906 41.327 99.984 40.6331C100.884 42.7405 102.708 44.5396 104.996 44.9508C107.283 45.362 109.93 44.7966 111.421 42.8948C113.014 40.9415 113.014 38.2686 112.937 35.8784C111.755 37.0349 110.393 38.063 108.748 38.4485C105.176 39.4508 101.243 38.2172 98.4934 35.8013C95.7177 33.3854 94.0728 29.6588 94.227 25.9578C94.3041 21.7686 96.6686 17.7335 100.241 15.549ZM105.561 18.8387C103.993 19.0957 102.528 19.9695 101.526 21.1775C99.1102 24.056 99.1102 28.6564 101.552 31.4835C102.94 33.1541 105.176 34.0793 107.334 33.848C109.365 33.6424 111.241 32.3574 112.243 30.584C113.94 27.577 113.657 23.4906 111.37 20.8691C109.956 19.2499 107.694 18.4532 105.561 18.8387Z" fill="#465CA9"/>
<path d="M134.192 16.8596C137.276 13.9811 142.031 13.0045 145.989 14.5209C149.741 15.9344 152.131 19.5068 153.339 23.1821C147.762 25.4952 142.211 27.7825 136.634 30.0956C137.405 31.5606 138.587 32.897 140.18 33.4367C142.416 34.2335 145.089 33.9508 146.965 32.4601C147.711 31.8947 148.302 31.1494 148.867 30.4297C150.281 31.3807 151.694 32.3059 153.108 33.2568C151.103 36.2638 147.736 38.3713 144.113 38.7054C140.103 39.1937 135.837 37.6517 133.241 34.5162C128.975 29.5816 129.386 21.3059 134.192 16.8596ZM136.942 21.6143C136.068 22.8737 135.708 24.4157 135.734 25.9321C139.461 24.39 143.187 22.848 146.914 21.2802C146.297 19.841 144.806 18.9671 143.29 18.7358C140.848 18.2989 138.304 19.6096 136.942 21.6143Z" fill="#465CA9"/>
</svg>
