<svg width="235" height="50" viewBox="0 0 235 50" fill="none" xmlns="http://www.w3.org/2000/svg">
<path d="M23.9013 23.7586H0.1427V0H23.9013V23.7586Z" fill="#465CA9"/>
<path d="M50.1335 23.7586H26.3754V0H50.1335V23.7586Z" fill="#3972E0"/>
<path d="M23.9006 50.0001H0.1427V26.2417H23.9006V50.0001Z" fill="#3972E0"/>
<path d="M50.1335 50.0001H26.3754V26.2417H50.1335V50.0001Z" fill="#465CA9"/>
<path d="M234.357 23.4664V19.3476H229.242V12.9444L229.07 12.9974L224.266 14.4673L224.171 14.4961V19.3478H216.589V16.645C216.589 15.3865 216.87 14.4234 217.425 13.7811C217.975 13.1465 218.763 12.8239 219.768 12.8239C220.49 12.8239 221.238 12.994 221.991 13.3296L222.179 13.4138V9.07617L222.091 9.04355C221.389 8.79116 220.434 8.66406 219.25 8.66406C217.758 8.66406 216.402 8.98872 215.22 9.63214C214.037 10.2765 213.107 11.1963 212.455 12.3658C211.806 13.5339 211.476 14.8831 211.476 16.3761V19.3476H207.915V23.4664H211.476V40.8182H216.589V23.4664H224.171V34.4931C224.171 39.0345 226.313 41.3358 230.538 41.3358C231.232 41.3358 231.963 41.2545 232.709 41.0952C233.468 40.9317 233.986 40.7683 234.29 40.5939L234.357 40.554V36.3971L234.149 36.5347C233.872 36.7195 233.526 36.8706 233.121 36.983C232.714 37.0974 232.375 37.1547 232.111 37.1547C231.122 37.1547 230.389 36.8881 229.935 36.3618C229.476 35.8307 229.243 34.9021 229.243 33.603V23.4664H234.357ZM196.497 37.1554C194.641 37.1554 193.178 36.5401 192.147 35.328C191.11 34.1098 190.584 32.373 190.584 30.1664C190.584 27.8897 191.11 26.1078 192.148 24.8681C193.179 23.6365 194.628 23.0115 196.455 23.0115C198.228 23.0115 199.639 23.6084 200.65 24.7868C201.666 25.9712 202.182 27.7388 202.182 30.042C202.182 32.3735 201.697 34.1644 200.741 35.3624C199.791 36.5514 198.364 37.1554 196.497 37.1554ZM196.724 18.8304C193.184 18.8304 190.372 19.8678 188.367 21.9138C186.363 23.9601 185.347 26.7918 185.347 30.3311C185.347 33.6927 186.339 36.3967 188.295 38.3666C190.251 40.3372 192.913 41.3354 196.207 41.3354C199.638 41.3354 202.394 40.2835 204.399 38.2091C206.402 36.137 207.418 33.332 207.418 29.8755C207.418 26.4612 206.465 23.7371 204.585 21.7804C202.705 19.8227 200.059 18.8304 196.724 18.8304ZM177.104 18.8304C174.696 18.8304 172.703 19.4464 171.182 20.6609C169.651 21.8828 168.874 23.4852 168.874 25.4243C168.874 26.4323 169.042 27.3276 169.372 28.087C169.703 28.8489 170.217 29.5198 170.899 30.0828C171.577 30.6412 172.622 31.2262 174.007 31.8214C175.172 32.3005 176.04 32.7058 176.592 33.0253C177.131 33.3384 177.514 33.6531 177.73 33.9596C177.94 34.2596 178.046 34.6701 178.046 35.1767C178.046 36.6192 176.966 37.321 174.743 37.321C173.919 37.321 172.978 37.1488 171.948 36.8095C170.925 36.4752 169.96 35.9857 169.086 35.3581L168.874 35.2059V40.1283L168.951 40.1646C169.675 40.4985 170.587 40.7801 171.662 41.0017C172.735 41.2235 173.71 41.3363 174.557 41.3363C177.17 41.3363 179.275 40.7174 180.81 39.4955C182.355 38.2653 183.139 36.625 183.139 34.6189C183.139 33.1716 182.717 31.9306 181.886 30.9296C181.061 29.9369 179.628 29.0254 177.63 28.2198C176.038 27.5809 175.019 27.0505 174.598 26.6434C174.192 26.2501 173.986 25.6939 173.986 24.9895C173.986 24.3651 174.241 23.8649 174.762 23.4598C175.288 23.0527 176.02 22.8456 176.938 22.8456C177.79 22.8456 178.662 22.9802 179.529 23.2439C180.395 23.5076 181.155 23.8608 181.79 24.2929L181.999 24.4356V19.7663L181.919 19.7318C181.333 19.4806 180.561 19.2656 179.622 19.0911C178.688 18.9178 177.841 18.8304 177.104 18.8304ZM155.545 37.1554C153.69 37.1554 152.227 36.5401 151.196 35.328C150.158 34.1098 149.633 32.3735 149.633 30.1664C149.633 27.8897 150.159 26.1078 151.197 24.8681C152.228 23.6365 153.677 23.0115 155.504 23.0115C157.277 23.0115 158.688 23.6084 159.699 24.7868C160.715 25.9712 161.23 27.7388 161.23 30.042C161.23 32.3735 160.745 34.1644 159.789 35.3624C158.84 36.5514 157.413 37.1554 155.545 37.1554ZM155.773 18.8304C152.232 18.8304 149.42 19.8678 147.416 21.9138C145.412 23.9601 144.396 26.7918 144.396 30.3311C144.396 33.6941 145.388 36.3967 147.344 38.3666C149.3 40.3372 151.962 41.3354 155.255 41.3354C158.687 41.3354 161.444 40.2835 163.448 38.2091C165.451 36.137 166.467 33.332 166.467 29.8755C166.467 26.4612 165.514 23.7371 163.634 21.7804C161.753 19.8227 159.108 18.8304 155.773 18.8304ZM136.635 23.0658V19.3476H131.584V40.8177H136.635V29.8349C136.635 27.9674 137.058 26.4332 137.894 25.2743C138.719 24.1293 139.818 23.5491 141.16 23.5491C141.615 23.5491 142.126 23.6241 142.679 23.7725C143.226 23.92 143.622 24.0801 143.856 24.2487L144.068 24.4025V19.3109L143.987 19.2758C143.516 19.0759 142.851 18.9751 142.009 18.9751C140.74 18.9751 139.604 19.3829 138.631 20.1858C137.777 20.8916 137.16 21.8592 136.688 23.0658H136.635ZM122.54 18.8304C120.223 18.8304 118.156 19.3272 116.398 20.3066C114.637 21.2883 113.275 22.6898 112.348 24.4719C111.425 26.2496 110.957 28.3263 110.957 30.6421C110.957 32.6707 111.411 34.5323 112.309 36.1731C113.207 37.8165 114.478 39.1022 116.088 39.994C117.695 40.8845 119.553 41.3361 121.609 41.3361C124.009 41.3361 126.059 40.8562 127.702 39.9099L127.768 39.8718V35.2449L127.556 35.3998C126.811 35.942 125.98 36.3747 125.085 36.6864C124.192 36.998 123.378 37.1554 122.665 37.1554C120.683 37.1554 119.092 36.5353 117.937 35.3128C116.78 34.0887 116.193 32.3699 116.193 30.2069C116.193 28.0304 116.805 26.2673 118.011 24.9664C119.214 23.6694 120.807 23.0115 122.748 23.0115C124.408 23.0115 126.026 23.5736 127.556 24.6837L127.768 24.8375V19.9622L127.7 19.9237C127.124 19.6013 126.338 19.3351 125.363 19.1333C124.392 18.9319 123.442 18.8304 122.54 18.8304ZM107.478 19.3478H102.428V40.8177H107.478V19.3478ZM105.005 10.2015C104.173 10.2015 103.448 10.4844 102.853 11.0452C102.255 11.6075 101.951 12.3155 101.951 13.151C101.951 13.9734 102.251 14.6685 102.844 15.2159C103.432 15.7616 104.159 16.0383 105.005 16.0383C105.85 16.0383 106.58 15.7616 107.176 15.2168C107.775 14.6685 108.079 13.9737 108.079 13.151C108.079 12.3447 107.783 11.644 107.2 11.0678C106.618 10.4928 105.879 10.2015 105.005 10.2015ZM92.4035 17.7637V40.8177H97.5577V10.8587H90.4241L81.3568 33.1114L72.5576 10.8587H65.1335V40.8175H69.9771V17.7615H70.1434L79.4352 40.8177H83.0905L92.2372 17.7637H92.4035Z" fill="#465CA9"/>
</svg>
