<svg width="132" height="15" viewBox="0 0 132 15" fill="none" xmlns="http://www.w3.org/2000/svg">
<path d="M8.40547 4.50768C8.34581 3.94944 8.09439 3.51478 7.65121 3.2037C7.21229 2.89262 6.64127 2.73708 5.93814 2.73708C5.44383 2.73708 5.01982 2.81166 4.66613 2.9608C4.31243 3.10995 4.04184 3.31237 3.85434 3.56805C3.66684 3.82373 3.57096 4.11563 3.56669 4.44376C3.56669 4.71649 3.62848 4.95299 3.75206 5.15328C3.87991 5.35356 4.05249 5.52402 4.26982 5.66464C4.48715 5.801 4.72792 5.91606 4.99212 6.00981C5.25633 6.10356 5.52266 6.1824 5.79113 6.24632L7.0184 6.55313C7.51272 6.66819 7.98786 6.82373 8.44383 7.01975C8.90405 7.21578 9.31527 7.46294 9.67749 7.76123C10.044 8.05953 10.3337 8.41961 10.5468 8.84149C10.7599 9.26336 10.8664 9.75768 10.8664 10.3244C10.8664 11.0915 10.6704 11.7669 10.2783 12.3507C9.8863 12.9303 9.31954 13.3841 8.57806 13.7122C7.84084 14.0361 6.94809 14.198 5.89979 14.198C4.88133 14.198 3.99709 14.0403 3.24709 13.725C2.50135 13.4097 1.91755 12.9494 1.49567 12.3443C1.07806 11.7392 0.852206 11.002 0.818115 10.1327H3.15121C3.1853 10.5886 3.32593 10.9679 3.57309 11.2705C3.82025 11.573 4.14198 11.7989 4.53829 11.948C4.93885 12.0972 5.3863 12.1717 5.88062 12.1717C6.39624 12.1717 6.84795 12.095 7.23573 11.9416C7.62777 11.784 7.93459 11.5666 8.15618 11.2896C8.37777 11.0084 8.4907 10.6803 8.49496 10.3053C8.4907 9.96436 8.39056 9.68311 8.19454 9.46152C7.99851 9.23566 7.72365 9.04816 7.36996 8.89902C7.02053 8.74561 6.61144 8.60924 6.14269 8.48992L4.65334 8.1064C3.57522 7.82941 2.72294 7.40967 2.09652 6.84717C1.47437 6.28041 1.16329 5.52828 1.16329 4.59078C1.16329 3.81947 1.37209 3.14404 1.78971 2.5645C2.21158 1.98495 2.78473 1.53538 3.50917 1.21578C4.2336 0.891912 5.05391 0.72998 5.9701 0.72998C6.89908 0.72998 7.713 0.891912 8.41187 1.21578C9.11499 1.53538 9.66684 1.98069 10.0674 2.55171C10.468 3.11847 10.6746 3.77046 10.6874 4.50768H8.40547Z" fill="#121212"/>
<path d="M12.4053 2.89688V0.908958H22.8499V2.89688H18.8037V13.9999H16.4515V2.89688H12.4053Z" fill="#121212"/>
<path d="M24.9625 13.9999H22.4312L27.0399 0.908958H29.9674L34.5825 13.9999H32.0512L28.5548 3.59362H28.4525L24.9625 13.9999ZM25.0456 8.86705H31.949V10.7719H25.0456V8.86705Z" fill="#121212"/>
<path d="M36.3068 13.9999V0.908958H41.2158C42.2215 0.908958 43.0653 1.08367 43.7471 1.43311C44.4332 1.78254 44.9509 2.27259 45.3004 2.90328C45.6541 3.5297 45.8309 4.26052 45.8309 5.09575C45.8309 5.93524 45.6519 6.66393 45.294 7.28183C44.9403 7.89546 44.4183 8.37061 43.7279 8.70725C43.0376 9.03964 42.1896 9.20583 41.1839 9.20583H37.6874V7.23708H40.8643C41.4523 7.23708 41.9339 7.15612 42.3089 6.99419C42.6839 6.82799 42.9609 6.58722 43.1399 6.27188C43.3231 5.95228 43.4147 5.56024 43.4147 5.09575C43.4147 4.63126 43.3231 4.23495 43.1399 3.90683C42.9566 3.57444 42.6775 3.32302 42.3025 3.15257C41.9275 2.97785 41.4438 2.89049 40.8515 2.89049H38.6782V13.9999H36.3068ZM43.0695 8.06805L46.3103 13.9999H43.664L40.4808 8.06805H43.0695Z" fill="#121212"/>
<path d="M47.4385 2.89688V0.908958H57.8831V2.89688H53.8369V13.9999H51.4847V2.89688H47.4385Z" fill="#121212"/>
<path d="M68.1487 0.908958H70.5202V9.46152C70.5202 10.399 70.2986 11.2236 69.8554 11.9352C69.4165 12.6469 68.7986 13.203 68.0017 13.6036C67.2048 13.9999 66.2737 14.198 65.2084 14.198C64.1388 14.198 63.2055 13.9999 62.4087 13.6036C61.6118 13.203 60.9939 12.6469 60.555 11.9352C60.1161 11.2236 59.8966 10.399 59.8966 9.46152V0.908958H62.268V9.26336C62.268 9.80882 62.3874 10.2946 62.626 10.7207C62.8689 11.1469 63.2098 11.4814 63.6487 11.7243C64.0876 11.9629 64.6075 12.0823 65.2084 12.0823C65.8092 12.0823 66.3291 11.9629 66.768 11.7243C67.2112 11.4814 67.5521 11.1469 67.7908 10.7207C68.0294 10.2946 68.1487 9.80882 68.1487 9.26336V0.908958Z" fill="#121212"/>
<path d="M73.0978 13.9999V0.908958H78.0069C79.0125 0.908958 79.8563 1.09646 80.5381 1.47146C81.2242 1.84646 81.7419 2.36208 82.0914 3.01833C82.4451 3.67032 82.6219 4.4118 82.6219 5.24277C82.6219 6.08225 82.4451 6.82799 82.0914 7.47998C81.7377 8.13197 81.2157 8.64546 80.5253 9.02046C79.835 9.3912 78.9848 9.57657 77.9749 9.57657H74.7213V7.627H77.6553C78.2434 7.627 78.7249 7.52473 79.0999 7.32018C79.4749 7.11563 79.7519 6.83438 79.9309 6.47643C80.1141 6.11848 80.2057 5.70725 80.2057 5.24277C80.2057 4.77828 80.1141 4.36919 79.9309 4.01549C79.7519 3.6618 79.4728 3.38694 79.0935 3.19092C78.7185 2.99063 78.2348 2.89049 77.6425 2.89049H75.4692V13.9999H73.0978Z" fill="#121212"/>
<path d="M84.6817 13.9999V0.908958H89.6931C90.6391 0.908958 91.4254 1.05811 92.0518 1.3564C92.6825 1.65044 93.1533 2.05313 93.4644 2.5645C93.7798 3.07586 93.9374 3.65541 93.9374 4.30313C93.9374 4.83581 93.8352 5.29177 93.6306 5.67103C93.4261 6.04603 93.1512 6.35072 92.806 6.58509C92.4609 6.81947 92.0752 6.98779 91.6491 7.09007V7.21791C92.1136 7.24348 92.5589 7.38623 92.985 7.64617C93.4154 7.90186 93.767 8.26407 94.0397 8.73282C94.3124 9.20157 94.4488 9.76833 94.4488 10.4331C94.4488 11.1107 94.2847 11.72 93.9566 12.2612C93.6285 12.7982 93.1342 13.2222 92.4737 13.5332C91.8131 13.8443 90.9822 13.9999 89.9808 13.9999H84.6817ZM87.0532 12.0183H89.6036C90.4644 12.0183 91.0844 11.8543 91.4637 11.5261C91.8472 11.1938 92.039 10.7676 92.039 10.2477C92.039 9.85995 91.9431 9.51052 91.7514 9.19944C91.5596 8.8841 91.2869 8.63694 90.9332 8.45796C90.5795 8.27473 90.1576 8.18311 89.6675 8.18311H87.0532V12.0183ZM87.0532 6.47643H89.3991C89.8082 6.47643 90.1768 6.40186 90.5049 6.25271C90.833 6.0993 91.0908 5.8841 91.2783 5.60711C91.4701 5.32586 91.566 4.99348 91.566 4.60995C91.566 4.10285 91.387 3.68524 91.0291 3.35711C90.6754 3.02899 90.1491 2.86492 89.4502 2.86492H87.0532V6.47643Z" fill="#121212"/>
<path d="M108.209 7.45441C108.209 8.86492 107.945 10.073 107.417 11.0787C106.893 12.0801 106.177 12.8472 105.269 13.3798C104.366 13.9125 103.341 14.1788 102.194 14.1788C101.048 14.1788 100.021 13.9125 99.1134 13.3798C98.21 12.8429 97.4941 12.0737 96.9657 11.0723C96.4415 10.0666 96.1794 8.86066 96.1794 7.45441C96.1794 6.0439 96.4415 4.83794 96.9657 3.83651C97.4941 2.83083 98.21 2.06166 99.1134 1.52899C100.021 0.996316 101.048 0.72998 102.194 0.72998C103.341 0.72998 104.366 0.996316 105.269 1.52899C106.177 2.06166 106.893 2.83083 107.417 3.83651C107.945 4.83794 108.209 6.0439 108.209 7.45441ZM105.825 7.45441C105.825 6.46151 105.67 5.62416 105.358 4.94234C105.052 4.25626 104.625 3.7385 104.08 3.38907C103.535 3.03538 102.906 2.85853 102.194 2.85853C101.483 2.85853 100.854 3.03538 100.309 3.38907C99.7632 3.7385 99.335 4.25626 99.0239 4.94234C98.7171 5.62416 98.5637 6.46151 98.5637 7.45441C98.5637 8.44731 98.7171 9.2868 99.0239 9.97288C99.335 10.6547 99.7632 11.1725 100.309 11.5261C100.854 11.8756 101.483 12.0503 102.194 12.0503C102.906 12.0503 103.535 11.8756 104.08 11.5261C104.625 11.1725 105.052 10.6547 105.358 9.97288C105.67 9.2868 105.825 8.44731 105.825 7.45441Z" fill="#121212"/>
<path d="M111.429 13.9999H108.898L113.507 0.908958H116.434L121.049 13.9999H118.518L115.022 3.59362H114.919L111.429 13.9999ZM111.512 8.86705H118.416V10.7719H111.512V8.86705Z" fill="#121212"/>
<path d="M120.616 2.89688V0.908958H131.061V2.89688H127.015V13.9999H124.662V2.89688H120.616Z" fill="#121212"/>
</svg>
