<svg width="126" height="52" viewBox="0 0 126 52" fill="none" xmlns="http://www.w3.org/2000/svg">
<path fill-rule="evenodd" clip-rule="evenodd" d="M125.571 26.8677C125.571 17.9812 121.278 10.9692 113.072 10.9692C104.832 10.9692 99.8461 17.9812 99.8461 26.7983C99.8461 37.2469 105.732 42.5232 114.18 42.5232C118.3 42.5232 121.416 41.586 123.77 40.2669V33.3243C121.416 34.5046 118.715 35.2335 115.288 35.2335C111.929 35.2335 108.952 34.0533 108.571 29.9572H125.501C125.501 29.5059 125.571 27.7008 125.571 26.8677ZM108.467 23.57C108.467 19.6475 110.856 18.016 113.037 18.016C115.149 18.016 117.4 19.6475 117.4 23.57H108.467Z" fill="#465CA9"/>
<path fill-rule="evenodd" clip-rule="evenodd" d="M86.4819 10.9692C83.0888 10.9692 80.9076 12.566 79.6958 13.6768L79.2457 11.5246H71.6288V51.9999L80.2844 50.1601L80.319 40.3363C81.5654 41.2389 83.4004 42.5232 86.4472 42.5232C92.6447 42.5232 98.2882 37.5246 98.2882 26.5206C98.2535 16.4539 92.5408 10.9692 86.4819 10.9692ZM84.4045 34.8864C82.3618 34.8864 81.15 34.1574 80.319 33.2549L80.2844 20.3764C81.1846 19.3698 82.431 18.6755 84.4045 18.6755C87.5552 18.6755 89.7364 22.2162 89.7364 26.7636C89.7364 31.4151 87.5898 34.8864 84.4045 34.8864Z" fill="#465CA9"/>
<path fill-rule="evenodd" clip-rule="evenodd" d="M59.7185 8.92121L68.4088 7.04671V0L59.7185 1.83978V8.92121Z" fill="#465CA9"/>
<path d="M68.4088 11.5596H59.7185V41.9333H68.4088V11.5596Z" fill="#465CA9"/>
<path fill-rule="evenodd" clip-rule="evenodd" d="M50.4049 14.1278L49.8509 11.559H42.3725V41.9328H51.0281V21.348C53.0708 18.6751 56.5331 19.1611 57.6064 19.543V11.559C56.4985 11.1425 52.4476 10.3788 50.4049 14.1278Z" fill="#465CA9"/>
<path fill-rule="evenodd" clip-rule="evenodd" d="M33.0937 4.02686L24.6457 5.83193L24.6111 33.6369C24.6111 38.7744 28.4542 42.5581 33.5784 42.5581C36.4174 42.5581 38.4948 42.0375 39.6373 41.4126V34.3659C38.5294 34.8172 33.059 36.414 33.059 31.2765V18.9534H39.6373V11.5596H33.059L33.0937 4.02686Z" fill="#465CA9"/>
<path fill-rule="evenodd" clip-rule="evenodd" d="M9.68878 20.3764C9.68878 19.0226 10.7967 18.5019 12.6317 18.5019C15.263 18.5019 18.5868 19.3003 21.2181 20.7236V12.566C18.3444 11.4205 15.5054 10.9692 12.6317 10.9692C5.60332 10.9692 0.92926 14.6488 0.92926 20.793C0.92926 30.3737 14.0859 28.8464 14.0859 32.9772C14.0859 34.574 12.701 35.0947 10.7621 35.0947C7.88841 35.0947 4.21841 33.9145 1.31011 32.3177V40.5793C4.53001 41.9678 7.78454 42.558 10.7621 42.558C17.9636 42.558 22.9146 38.9825 22.9146 32.7689C22.88 22.4245 9.68878 24.2643 9.68878 20.3764Z" fill="#465CA9"/>
</svg>
