<svg width="131" height="46" viewBox="0 0 131 46" fill="none" xmlns="http://www.w3.org/2000/svg">
<path d="M8.42864 32.6384C8.97611 34.0921 9.73406 35.3351 10.7026 36.3673C11.6712 37.3997 12.8187 38.1897 14.1451 38.7375C15.4716 39.2853 16.9138 39.5591 18.4719 39.5591C19.988 39.5591 21.4091 39.2746 22.7356 38.7057C24.0621 38.1368 25.2201 37.3363 26.2096 36.3041C27.1992 35.2718 27.9678 34.0394 28.5152 32.6068C29.0627 31.1742 29.3363 29.5732 29.3363 27.8034V0.5H35.9686V44.7416H29.3995V40.6334C27.9257 42.1923 26.1885 43.3932 24.1883 44.236C22.188 45.0786 20.03 45.5 17.714 45.5C15.3557 45.5 13.1555 45.0891 11.1131 44.2675C9.07087 43.4459 7.30213 42.2768 5.80734 40.7598C4.31255 39.2429 3.13334 37.4208 2.27015 35.2929C1.40682 33.1651 0.97522 30.7951 0.97522 28.1826V0.5H7.60752V27.8034C7.60752 29.5732 7.88118 31.1847 8.42864 32.6384Z" fill="#465CA9"/>
<path d="M47.401 0.5V16.6166C48.8748 15.1419 50.5804 13.9727 52.5174 13.1089C54.4544 12.245 56.56 11.8132 58.8338 11.8132C61.1921 11.8132 63.4026 12.2555 65.4661 13.1403C67.5295 14.0252 69.3191 15.226 70.8351 16.743C72.3511 18.2599 73.5513 20.0505 74.4356 22.1151C75.3199 24.1798 75.762 26.3708 75.762 28.6883C75.762 31.0056 75.3199 33.1861 74.4356 35.2295C73.5513 37.2731 72.3511 39.0534 70.8351 40.5701C69.3191 42.087 67.5295 43.2879 65.4661 44.1727C63.4026 45.0575 61.1919 45.4999 58.8338 45.4999C56.5598 45.4999 54.4439 45.068 52.4858 44.2042C50.5277 43.3405 48.8116 42.1712 47.3378 40.6965V44.7415H41.0214V0.5H47.401ZM48.1273 33.0492C48.6958 34.3976 49.4854 35.5773 50.4961 36.5886C51.5067 37.5998 52.6858 38.4005 54.0333 38.9903C55.3809 39.5802 56.8336 39.8752 58.3917 39.8752C59.9078 39.8752 61.3394 39.5802 62.6869 38.9903C64.0344 38.4005 65.2028 37.6 66.1926 36.5886C67.1822 35.5775 67.9717 34.3976 68.5612 33.0492C69.1508 31.7009 69.4455 30.2473 69.4455 28.6883C69.4455 27.1292 69.1508 25.665 68.5612 24.2956C67.9717 22.9262 67.1822 21.736 66.1926 20.7247C65.203 19.7136 64.0345 18.9235 62.6869 18.3547C61.3393 17.786 59.9076 17.5014 58.3917 17.5014C56.8758 17.5014 55.4441 17.7858 54.0966 18.3547C52.7491 18.9236 51.5701 19.7136 50.5593 20.7247C49.5488 21.736 48.7486 22.9262 48.1591 24.2956C47.5695 25.665 47.2748 27.1292 47.2748 28.6883C47.2746 30.2473 47.5589 31.7009 48.1273 33.0492Z" fill="#465CA9"/>
<path d="M79.3617 22.1787C80.2038 20.1563 81.362 18.3761 82.8357 16.8382C84.3094 15.3003 86.0572 14.0889 88.0785 13.2041C90.0998 12.3193 92.2895 11.877 94.6476 11.877C96.9636 11.877 99.1113 12.2983 101.091 13.1409C103.07 13.9836 104.775 15.1529 106.207 16.6487C107.639 18.1444 108.755 19.9142 109.554 21.9576C110.355 24.0012 110.755 26.2239 110.755 28.6256V30.7113H84.5413C84.7519 32.0175 85.173 33.2289 85.8046 34.3453C86.4364 35.4618 87.2258 36.431 88.1732 37.2526C89.1207 38.0743 90.1945 38.7169 91.3947 39.1802C92.5948 39.6437 93.8685 39.8756 95.2162 39.8756C99.0483 39.8756 102.143 38.2954 104.501 35.1353L109.112 38.5481C107.512 40.697 105.533 42.3825 103.175 43.6043C100.817 44.8262 98.164 45.4372 95.2163 45.4372C92.816 45.4372 90.5737 45.0157 88.4892 44.1731C86.4048 43.3305 84.5941 42.1506 83.0571 40.6337C81.5201 39.1168 80.3095 37.3366 79.4252 35.2932C78.5409 33.2497 78.0986 31.0269 78.0986 28.6253C78.0984 26.3501 78.5196 24.2012 79.3617 22.1787ZM88.2364 19.6822C86.4467 21.178 85.2572 23.1689 84.6676 25.6548H104.312C103.765 23.1689 102.596 21.178 100.806 19.6822C99.0165 18.1865 96.9216 17.4386 94.5214 17.4386C92.121 17.4386 90.0261 18.1865 88.2364 19.6822Z" fill="#465CA9"/>
<path d="M122.692 20.4085C121.345 21.8832 120.671 23.8846 120.671 26.4128V44.7416H114.291V12.5084H120.608V16.4901C121.408 15.1839 122.45 14.1516 123.735 13.3932C125.019 12.6346 126.545 12.2554 128.314 12.2554H130.525V18.1964H127.872C125.767 18.1966 124.04 18.9338 122.692 20.4085Z" fill="#465CA9"/>
</svg>
