<svg width="44" height="44" viewBox="0 0 44 44" fill="none" xmlns="http://www.w3.org/2000/svg">
<path d="M35.5403 5.27313C35.2 5.09438 34.7909 5.12187 34.4747 5.33844C31.3981 7.46969 29.3459 10.8178 28.8441 14.5269L27.8575 21.8178L27.8506 21.8488C27.7269 22.4056 28.0775 22.9556 28.6344 23.0794C29.5934 23.2925 30.2706 24.1588 30.2466 25.1453C30.2225 26.2522 29.2428 27.1562 28.0672 27.1562H27.0359C26.8641 27.1562 26.6922 27.1666 26.5238 27.1838C26.4928 27.1219 26.4653 27.0566 26.4344 26.9912L25.5819 25.3344C23.9112 22.0894 23.0312 18.4491 23.0312 14.7984V1.375C23.0312 0.804375 22.5706 0.34375 22 0.34375C21.4294 0.34375 20.9688 0.804375 20.9688 1.375V14.7984C20.9688 18.4456 20.0888 22.0894 18.4181 25.3309L17.5656 26.9878C17.5347 27.0497 17.5072 27.115 17.4763 27.1803C17.3078 27.1666 17.1359 27.1562 16.9641 27.1562H15.9328C14.7572 27.1562 13.7775 26.2522 13.75 25.1453C13.7259 24.1622 14.4066 23.2925 15.3622 23.0794C15.9191 22.9556 16.2697 22.4056 16.1459 21.8488L15.1525 14.5269C14.6506 10.8178 12.5984 7.46625 9.52188 5.33844C9.20563 5.12187 8.79656 5.09438 8.45625 5.27313C8.11938 5.45188 7.90625 5.8025 7.90625 6.1875V33.3438C7.90625 33.9144 8.36688 34.375 8.9375 34.375H13.0625C13.6331 34.375 14.0938 33.9144 14.0938 33.3438C14.0938 32.7731 13.6331 32.3125 13.0625 32.3125H9.96875V8.39781C11.6669 10.1234 12.7841 12.375 13.1106 14.8053L14.0009 21.3881C12.5812 22.0825 11.6497 23.5572 11.6875 25.1934C11.7425 27.4141 13.6469 29.2188 15.9328 29.2188H16.7131C15.9087 32.2163 16.3522 35.4784 18.0194 38.1631L21.1269 43.1716C21.3125 43.4706 21.6425 43.6562 22 43.6562C22.3575 43.6562 22.6875 43.4706 22.8766 43.1681L25.9841 38.1597C27.6478 35.4784 28.0912 32.2162 27.2903 29.2153H28.0706C30.3531 29.2187 32.2575 27.4141 32.3125 25.1934C32.3503 23.5572 31.4187 22.0825 29.9991 21.3881L30.8894 14.8053C31.2159 12.375 32.3331 10.1269 34.0312 8.39781V32.3125H30.5938C30.0231 32.3125 29.5625 32.7731 29.5625 33.3438C29.5625 33.9144 30.0231 34.375 30.5938 34.375H35.0625C35.6331 34.375 36.0938 33.9144 36.0938 33.3438V6.1875C36.0938 5.8025 35.8806 5.45188 35.5403 5.27313ZM20.2537 26.2763C20.9722 24.8806 21.5566 23.4163 22 21.9106C22.4434 23.4163 23.0278 24.8806 23.7463 26.2763L24.4887 27.7234C23.4781 28.1944 22.6153 28.9266 21.9966 29.8444C21.3778 28.9266 20.515 28.1944 19.5044 27.7234L20.2537 26.2763ZM24.2309 37.0734L22 40.6691L19.7691 37.0734C18.3837 34.8425 18.0297 32.12 18.7309 29.6347C20.0544 30.2878 20.9688 31.6491 20.9688 33.2234V35.2859C20.9688 35.8566 21.4294 36.3172 22 36.3172C22.5706 36.3172 23.0312 35.8566 23.0312 35.2859V33.2234C23.0312 31.6491 23.9456 30.2912 25.2691 29.6347C25.9703 32.12 25.6162 34.8425 24.2309 37.0734Z" fill="white"/>
</svg>
